<?xml version="1.0" standalone="no"?>
<!DOCTYPE svg PUBLIC "-//W3C//DTD SVG 20010904//EN"
 "http://www.w3.org/TR/2001/REC-SVG-20010904/DTD/svg10.dtd">
<svg version="1.0" xmlns="http://www.w3.org/2000/svg"
 width="128.000000pt" height="128.000000pt" viewBox="0 0 128.000000 128.000000"
 preserveAspectRatio="xMidYMid meet">

<g transform="translate(0.000000,128.000000) scale(0.100000,-0.100000)"
fill="#000000" stroke="none">
<path d="M617 881 c-295 -115 -546 -216 -557 -226 -27 -24 -25 -61 2 -79 13
-8 82 -32 155 -55 l131 -41 21 -63 c11 -34 34 -108 51 -164 32 -108 50 -130
93 -117 27 8 117 93 117 111 0 24 -22 14 -71 -32 -26 -25 -54 -45 -62 -45 -14
0 -112 304 -103 319 3 4 66 45 140 92 75 46 136 89 136 96 0 29 -27 19 -142
-55 -68 -44 -134 -84 -145 -91 -18 -9 -45 -4 -150 29 -172 54 -159 48 -142 64
18 18 1052 416 1079 416 11 0 23 -6 26 -14 5 -12 -145 -747 -177 -868 -15 -59
-40 -51 -191 60 -73 54 -166 122 -205 151 -40 29 -73 56 -72 59 0 4 110 105
245 225 220 197 274 255 229 245 -22 -4 -525 -458 -525 -473 0 -15 420 -332
459 -346 37 -14 68 -3 86 31 16 31 195 860 195 904 0 31 -40 76 -67 75 -10 0
-260 -94 -556 -208z"/>
<path d="M704 729 c-10 -17 13 -36 27 -22 12 12 4 33 -11 33 -5 0 -12 -5 -16
-11z"/>
</g>
</svg>
